# xmcd
#
# Track frame offsets:
# 150
# 14571
# 30628
# 43756
#
# Disc length: 841 seconds
#
#
# Revision: 0
# Processed by: cddbd v1.5.1PL2 Copyright (c) Steve Scherf et al.
# Submitted via: FreeRIP 2.945 
#
DISCID=2c034704
DTITLE=Muleskinner Jones - Terrible Stories
DYEAR=2002
DGENRE=Country
TTITLE0=How Come that Blood on your Coat Sleeve?
TTITLE1=Pretty Polly
TTITLE2=Rose Connelly
TTITLE3=Black Sheep Lullaby
EXTD=
EXTT0=
EXTT1=
EXTT2=
EXTT3=
PLAYORDER=
